<svg width="78" height="97" viewBox="0 0 78 97" fill="none" xmlns="http://www.w3.org/2000/svg">
<g clip-path="url(#clip0_1_561)">
<path d="M76.6999 67.7857H75.3999V64.0203L77.9869 46.1103C78.0133 45.928 77.9997 45.7422 77.9471 45.5655C77.8945 45.3888 77.8041 45.2253 77.6821 45.0861C77.56 44.947 77.4092 44.8354 77.2397 44.7589C77.0703 44.6824 76.8862 44.6429 76.6999 44.6429H74.0999C70.0016 44.6299 66.04 46.0996 62.9614 48.7752L66.279 30.73C66.3131 30.5447 66.3055 30.3543 66.257 30.1722C66.2085 29.9901 66.12 29.8208 65.998 29.6762C65.876 29.5316 65.7234 29.4153 65.5509 29.3355C65.3785 29.2557 65.1904 29.2143 65 29.2143H62.4C58.2374 29.206 54.1583 30.3694 50.6394 32.5686C48.1083 29.1357 44.7923 26.3435 40.962 24.4199C37.1318 22.4963 32.8958 21.4957 28.6 21.5H26C25.8138 21.5 25.6297 21.5396 25.4603 21.6161C25.2908 21.6925 25.14 21.8041 25.0179 21.9433C24.8959 22.0824 24.8055 22.2459 24.7529 22.4226C24.7003 22.5993 24.6867 22.7851 24.713 22.9675L26.1034 32.5943C22.5708 30.3874 18.4783 29.2155 14.3 29.2143H11.7001C11.5096 29.2143 11.3216 29.2557 11.1491 29.3355C10.9766 29.4153 10.824 29.5316 10.702 29.6762C10.58 29.8208 10.4916 29.9901 10.443 30.1722C10.3945 30.3543 10.387 30.5447 10.421 30.73L12.2137 40.4823C10.3802 39.8332 8.44748 39.5009 6.50006 39.5H1.30007C1.09882 39.5 0.90031 39.5462 0.720183 39.635C0.540056 39.7237 0.383229 39.8527 0.262055 40.0116C0.14088 40.1705 0.0586664 40.3551 0.0218898 40.5508C-0.0148867 40.7465 -0.00522197 40.9479 0.0501226 41.1393L4.77659 57.5H3.90007C3.55528 57.5 3.22463 57.6355 2.98083 57.8766C2.73703 58.1177 2.60007 58.4447 2.60007 58.7857V67.7857H1.30007C0.955289 67.7857 0.62463 67.9212 0.380833 68.1623C0.137036 68.4034 7.25925e-05 68.7304 7.25925e-05 69.0714V74.2143C7.25925e-05 74.5553 0.137036 74.8823 0.380833 75.1234C0.62463 75.3645 0.955289 75.5 1.30007 75.5H76.6999C77.0447 75.5 77.3754 75.3645 77.6192 75.1234C77.863 74.8823 77.9999 74.5553 77.9999 74.2143V69.0714C77.9999 68.7304 77.863 68.4034 77.6192 68.1623C77.3754 67.9212 77.0447 67.7857 76.6999 67.7857ZM54.6 67.7857V63.9286C54.6 63.5876 54.463 63.2606 54.2192 63.0194C53.9754 62.7783 53.6448 62.6429 53.3 62.6429H48.1C47.7552 62.6429 47.4245 62.7783 47.1808 63.0194C46.937 63.2606 46.8 63.5876 46.8 63.9286V67.7857H41.6V63.9286C41.6 63.5876 41.463 63.2606 41.2192 63.0194C40.9754 62.7783 40.6448 62.6429 40.3 62.6429H35.1C34.7552 62.6429 34.4246 62.7783 34.1808 63.0194C33.937 63.2606 33.8 63.5876 33.8 63.9286V67.7857H20.0386L10.0193 57.8766C9.8986 57.7572 9.75528 57.6625 9.59755 57.5979C9.43983 57.5332 9.27078 57.5 9.10006 57.5H7.80006V54.9286H14.3C14.5567 54.9286 14.8076 54.8535 15.0211 54.7126L18.5936 52.3571H26.8192L35.554 59.7619C35.7896 59.9616 36.0897 60.0714 36.4 60.0714H67.1438L72.7999 64.5465V67.7857H54.6ZM52 67.7857H49.4V65.2143H52V67.7857ZM39 67.7857H36.4V65.2143H39V67.7857ZM53.3 57.5H48.1V49.5938L53.3 56.0224V57.5ZM45.5 57.5H39.1048L45.5 49.5938V57.5ZM74.0999 47.2143H75.201L73.1349 61.5179L68.4125 57.7817C68.1818 57.5993 67.8953 57.4999 67.6 57.5H60.3411C61.1894 54.5378 62.9922 51.9304 65.4755 50.0739C67.9588 48.2175 70.987 47.2134 74.0999 47.2143ZM63.4422 31.7857L59.5774 52.8071C58.7245 54.2158 58.0895 55.7426 57.6933 57.337L55.9 55.1205V48.5C55.9058 43.6473 54.5834 38.8835 52.0731 34.7139C55.167 32.7935 58.7472 31.7783 62.4 31.7857H63.4422ZM28.6 24.0714C31.8439 24.0706 35.0562 24.7019 38.0533 25.9292C41.0505 27.1565 43.7737 28.9559 46.0675 31.2245C48.3613 33.493 50.1806 36.1864 51.4216 39.1506C52.6626 42.1148 53.3009 45.2918 53.3 48.5V51.9062L47.8151 45.125C47.6933 44.9744 47.5389 44.8529 47.3631 44.7694C47.1874 44.6858 46.995 44.6425 46.8 44.6425C46.605 44.6425 46.4126 44.6858 46.2368 44.7694C46.0611 44.8529 45.9066 44.9744 45.7849 45.125L36.225 56.9436L31.6913 53.1005L27.4989 24.0714H28.6ZM14.3 31.7857C18.7854 31.7864 23.1335 33.3158 26.612 36.1163L28.6985 50.5636L28.146 50.0953C27.9104 49.8955 27.6103 49.7857 27.3 49.7857H18.2C17.9434 49.7857 17.6924 49.8609 17.4789 50.0017L16.7007 50.5149L13.2578 31.7857H14.3ZM6.50006 42.0714C8.67195 42.0721 10.8153 42.5606 12.7685 43.5L14.3436 52.069L13.9065 52.3571H6.50006C6.33609 52.3573 6.17363 52.3882 6.02134 52.4483L3.02257 42.0714H6.50006ZM5.20006 60.0714H8.56153L16.3615 67.7857H5.20006V60.0714ZM75.3999 72.9286H2.60007V70.3571H75.3999V72.9286Z" fill="#0A8BFE"/>
</g>
<defs>
<clipPath id="clip0_1_561">
<rect width="78" height="97" fill="white"/>
</clipPath>
</defs>
</svg>
