<svg width="27" height="30" viewBox="0 0 27 30" fill="none" xmlns="http://www.w3.org/2000/svg">
<path fill-rule="evenodd" clip-rule="evenodd" d="M14.8997 0.414354L25.1723 6.36069C26.1267 6.91317 26.7147 7.93418 26.7147 9.03912V20.9318C26.7147 22.0367 26.1267 23.0578 25.1723 23.6102L14.8997 29.5566C13.9453 30.109 12.7694 30.109 11.815 29.5566L1.54237 23.6102C0.587949 23.0578 0 22.0367 0 20.9318V9.03912C0 7.93418 0.587949 6.91317 1.54237 6.36069L11.815 0.414354C12.7694 -0.138118 13.9453 -0.138118 14.8997 0.414354ZM13.3573 10.3463L9.35014 12.6659V17.3051L13.3573 19.6246L17.3645 17.3051V12.6659L13.3573 10.3463Z" fill="white"/>
</svg>
